<svg id="visual" viewBox="0 0 900 675" width="900" height="675" xmlns="http://www.w3.org/2000/svg" xmlns:xlink="http://www.w3.org/1999/xlink" version="1.1"><rect x="0" y="0" width="900" height="675" fill="#000000"></rect><g transform="translate(426.9881977362126 338.8733216467646)"><path d="M207.2 -254.8C287.5 -226.9 384.5 -191.7 415.8 -127.5C447.2 -63.3 412.8 29.8 367 103.2C321.1 176.6 263.7 230.3 200.6 262.5C137.5 294.8 68.8 305.6 -0.7 306.5C-70.1 307.5 -140.3 298.6 -201.6 265.8C-263 232.9 -315.5 176.3 -348.3 106C-381.1 35.6 -394.1 -48.3 -368 -116.8C-341.9 -185.3 -276.8 -238.3 -208.9 -270.2C-141.1 -302.2 -70.5 -313.1 -3.5 -308.2C63.5 -303.4 127 -282.7 207.2 -254.8" fill="#fdfdfd"></path></g></svg>