<svg xmlns="http://www.w3.org/2000/svg" width="800" height="800" viewBox="0 0 800 800">
<g>
<path d="M 82.33,789.75 C82.92,780.26 86.69,752.15 88.94,740.50 C89.47,737.75 90.84,728.75 91.97,720.50 C96.02,691.00 97.47,685.31 104.98,669.51 C106.56,666.21 109.45,660.12 111.41,656.00 C116.01,646.33 122.00,636.91 127.96,630.00 C130.57,626.97 133.72,622.47 134.97,620.00 C136.21,617.52 138.04,614.60 139.03,613.50 C140.02,612.40 142.56,608.99 144.67,605.93 C161.62,581.28 162.72,580.27 185.36,568.55 C199.77,561.09 208.13,558.11 227.26,553.65 C231.36,552.70 236.88,550.34 241.29,547.66 C252.99,540.56 262.33,536.19 271.45,533.54 C276.14,532.18 283.02,529.60 286.74,527.80 C295.74,523.44 299.92,523.47 307.02,527.96 C310.04,529.87 315.73,534.52 319.67,538.30 L 326.83,545.18 L 326.40,540.84 C326.00,536.91 326.07,536.73 327.14,539.00 C330.62,546.36 330.83,547.00 329.76,547.00 C328.62,547.00 329.67,548.49 330.83,548.52 C331.20,548.52 332.06,548.89 332.75,549.32 C334.49,550.43 334.34,549.61 331.65,543.69 C329.04,537.90 324.62,520.60 325.28,518.72 C325.51,518.05 326.04,519.41 326.44,521.75 C326.84,524.09 327.59,526.00 328.09,526.00 C328.59,526.00 328.89,526.54 328.75,527.19 C328.61,527.85 329.29,528.55 330.25,528.76 C331.50,529.04 331.82,528.70 331.39,527.57 C330.99,526.54 331.34,526.00 332.41,526.00 C333.65,526.00 333.89,526.60 333.41,528.50 C333.02,530.04 333.21,531.00 333.89,531.00 C334.50,531.00 335.00,531.78 335.00,532.72 C335.00,534.14 335.28,534.05 336.56,532.22 C337.41,531.00 337.84,529.55 337.50,529.00 C337.16,528.45 337.47,527.99 338.19,527.97 C339.00,527.95 338.77,527.38 337.57,526.48 C335.86,525.18 335.80,524.75 337.01,522.48 C338.43,519.83 342.06,518.30 344.04,519.53 C344.91,520.07 344.92,519.72 344.06,518.12 C343.44,516.95 342.22,516.00 341.35,516.00 C340.27,516.00 339.93,515.38 340.28,514.03 C340.63,512.70 340.19,511.88 338.90,511.47 C336.91,510.84 336.23,508.00 338.06,508.00 C338.64,508.00 338.84,507.54 338.49,506.98 C338.14,506.42 337.37,506.27 336.76,506.65 C336.05,507.09 335.89,506.73 336.31,505.63 C336.71,504.60 336.41,503.71 335.57,503.39 C334.81,503.10 333.93,501.85 333.62,500.61 C333.31,499.38 332.19,497.37 331.14,496.16 C329.53,494.30 328.83,494.12 326.86,495.02 C324.23,496.22 323.23,501.00 325.61,501.00 C326.37,501.00 327.00,501.45 327.00,502.00 C327.00,502.93 324.99,503.33 323.25,502.75 C322.84,502.61 322.61,501.69 322.75,500.69 C322.89,499.65 322.55,499.16 321.96,499.53 C321.26,499.96 321.16,498.59 321.67,495.33 C323.05,486.35 322.12,463.56 319.79,449.66 C318.81,443.79 318.04,442.15 314.32,438.02 C309.47,432.61 309.22,432.00 311.87,432.00 C314.36,432.00 324.00,427.95 324.00,426.91 C324.00,426.45 324.93,425.21 326.07,424.15 C327.93,422.42 328.02,421.80 327.01,418.04 L 325.88,413.85 L 323.19,415.62 C319.59,418.00 313.36,421.00 312.02,421.00 C311.42,421.00 310.68,420.32 310.36,419.50 C310.01,418.59 308.50,418.00 306.55,418.00 C301.90,418.00 297.63,415.55 294.79,411.24 C290.98,405.46 289.19,402.81 286.44,398.87 C282.63,393.44 275.87,376.21 275.31,370.51 C274.37,360.95 279.73,343.28 284.32,340.83 C285.36,340.27 287.06,340.04 288.10,340.32 C290.35,340.90 290.56,340.16 288.58,338.61 C287.23,337.55 282.75,326.08 281.04,319.31 C280.60,317.55 279.01,313.95 277.50,311.31 C276.00,308.66 273.91,303.16 272.87,299.08 C271.83,295.00 270.24,290.28 269.33,288.58 C264.14,278.85 263.06,276.14 263.03,272.81 C263.01,270.78 262.60,268.87 262.10,268.56 C261.59,268.25 261.56,266.43 262.04,264.33 C262.64,261.65 262.48,260.09 261.43,258.60 C259.74,256.18 259.51,245.30 261.04,239.78 C262.18,235.67 266.47,230.00 268.43,230.00 C269.12,230.00 270.52,229.08 271.54,227.95 C272.56,226.83 275.10,224.95 277.19,223.77 C279.27,222.60 281.26,220.71 281.60,219.57 C281.95,218.43 283.06,216.59 284.07,215.48 C285.09,214.37 287.10,210.32 288.54,206.49 C289.98,202.65 291.49,199.29 291.88,199.01 C292.88,198.31 298.66,189.55 300.57,185.86 C301.44,184.18 302.41,183.08 302.74,183.41 C303.07,183.74 302.76,185.08 302.05,186.40 C299.92,190.38 301.39,191.51 303.96,187.87 C305.27,186.02 309.07,182.21 312.42,179.41 C316.55,175.94 318.47,173.62 318.42,172.16 C318.38,170.97 318.94,170.00 319.67,170.00 C320.40,170.00 321.00,169.29 321.00,168.43 C321.00,167.32 320.42,167.05 319.00,167.50 C317.58,167.95 317.00,167.68 317.00,166.57 C317.00,165.71 317.34,165.05 317.75,165.12 C319.77,165.44 321.00,164.87 321.00,163.62 C321.00,159.86 337.92,150.00 344.37,150.00 C346.42,150.00 348.38,149.23 349.50,148.00 C350.50,146.90 351.92,146.00 352.65,146.00 C353.39,146.00 354.00,145.59 354.00,145.08 C354.00,144.58 355.96,143.42 358.36,142.50 C362.65,140.86 367.65,140.87 371.44,142.52 C372.71,143.07 373.52,142.95 373.77,142.18 C373.99,141.53 374.75,141.00 375.47,141.00 C376.19,141.00 376.72,140.21 376.64,139.25 C376.45,136.91 380.77,136.31 382.34,138.45 C383.32,139.80 384.05,139.88 386.76,138.93 C389.13,138.11 390.85,138.10 393.15,138.90 C397.47,140.41 398.88,140.23 396.56,138.47 C395.49,137.66 393.69,136.99 392.56,136.97 C390.51,136.94 390.51,136.93 392.50,135.81 C393.60,135.18 394.79,134.23 395.14,133.70 C395.52,133.14 396.99,133.05 398.64,133.50 C400.21,133.93 402.82,134.44 404.44,134.65 C410.09,135.37 414.80,137.03 415.37,138.51 C416.14,140.54 417.14,140.39 421.18,137.65 C425.62,134.64 432.76,133.82 438.80,135.64 C444.64,137.40 451.19,136.54 454.82,133.54 C456.29,132.33 460.65,130.27 464.50,128.97 C468.35,127.67 472.01,126.23 472.63,125.78 C474.28,124.58 489.50,124.66 491.78,125.88 C493.12,126.60 493.89,128.39 494.28,131.75 C494.60,134.42 495.41,137.81 496.09,139.30 C497.26,141.86 497.43,141.92 499.16,140.35 C500.17,139.44 501.00,138.12 501.00,137.41 C501.00,134.72 505.10,134.72 507.90,137.40 C509.39,138.83 511.13,140.00 511.77,140.00 C513.70,140.00 514.92,143.44 514.42,147.45 C513.91,151.56 515.24,154.00 517.98,154.00 C518.93,154.00 520.92,155.12 522.41,156.50 C523.89,157.87 525.94,159.00 526.97,159.00 C529.59,159.00 532.08,160.07 531.53,160.96 C531.27,161.37 532.10,163.10 533.36,164.81 C534.62,166.52 536.23,169.85 536.94,172.21 C537.65,174.57 538.48,177.18 538.78,178.00 C539.08,178.82 539.38,179.72 539.45,180.00 C539.57,180.52 543.64,186.64 546.74,190.96 C547.71,192.31 549.96,195.01 551.75,196.96 C553.53,198.91 554.99,200.91 555.00,201.41 C555.00,201.91 556.79,206.21 558.98,210.97 C562.29,218.14 563.11,221.23 563.82,229.06 C564.90,241.15 564.14,265.73 562.58,269.00 C561.70,270.83 561.58,275.65 562.14,287.00 C562.82,300.89 562.68,303.38 560.82,311.00 C557.83,323.25 558.60,333.68 562.91,339.03 C566.31,343.27 567.94,351.00 567.98,363.05 C568.00,368.63 567.43,370.79 564.16,377.55 C561.36,383.33 560.17,387.28 559.78,392.00 C559.08,400.41 555.50,408.09 549.18,414.75 C546.44,417.64 543.81,420.00 543.34,420.00 C542.87,420.00 541.91,421.30 541.21,422.88 C540.21,425.14 540.19,426.33 541.13,428.38 C541.78,429.82 542.70,431.00 543.16,431.00 C544.89,431.00 543.90,434.04 541.14,437.22 C537.17,441.77 535.51,445.44 534.00,453.00 C533.29,456.57 532.29,460.30 531.80,461.29 C531.30,462.27 530.24,466.55 529.45,470.79 C527.80,479.57 521.94,492.14 517.75,495.88 C516.23,497.24 514.51,500.18 513.93,502.42 C513.35,504.67 512.08,507.62 511.10,509.00 C510.12,510.38 508.08,514.65 506.56,518.50 C503.28,526.77 500.00,531.43 495.97,533.52 C492.12,535.51 485.32,546.06 483.41,553.00 C482.57,556.02 479.19,566.92 475.89,577.22 C471.07,592.26 469.95,596.97 470.20,601.22 L 470.50,606.50 L 478.45,611.26 C482.82,613.88 488.02,616.47 490.00,617.00 C497.90,619.13 515.01,628.92 528.50,639.01 C542.99,649.86 546.23,651.45 562.29,655.52 C567.93,656.95 570.55,658.41 577.72,664.12 L 586.37,671.00 L 594.03,671.00 C600.91,671.00 602.10,671.30 605.60,673.87 C611.68,678.36 629.24,696.85 633.72,703.50 C635.94,706.80 644.35,715.95 652.40,723.82 C666.80,737.91 673.15,745.29 676.43,751.78 C678.57,756.03 681.72,766.28 682.62,771.97 C683.14,775.28 684.42,777.60 687.56,780.97 C692.45,786.20 697.00,794.24 697.00,797.65 L 697.00,800.00 L 389.35,800.00 L 81.70,800.00 L 82.33,789.75 M 467.00,632.06 C467.00,629.46 465.51,627.15 464.49,628.17 C463.76,628.90 463.17,633.84 463.75,634.41 C465.32,635.98 467.00,634.77 467.00,632.06 M 339.44,492.64 C339.27,490.91 339.10,489.19 339.06,488.82 C339.03,488.45 338.43,487.55 337.74,486.82 C337.05,486.09 335.96,483.70 335.31,481.50 C334.67,479.30 333.25,474.80 332.16,471.50 C331.06,468.20 329.91,464.31 329.59,462.86 C329.02,460.25 326.61,458.50 324.98,459.51 C324.02,460.11 324.33,470.32 325.52,476.96 C325.96,479.42 327.13,482.29 328.11,483.35 C329.09,484.41 330.59,486.72 331.43,488.50 C333.25,492.33 336.00,495.00 336.00,492.93 C336.00,492.13 336.54,492.36 337.39,493.52 C338.15,494.56 338.56,496.11 338.29,496.96 C337.91,498.19 338.01,498.23 338.78,497.14 C339.31,496.40 339.61,494.37 339.44,492.64 M 498.97,457.32 C499.02,455.45 488.96,453.69 481.90,454.33 C471.22,455.31 464.00,456.70 464.00,457.80 C464.00,459.56 470.04,460.83 473.64,459.83 C475.63,459.28 478.16,459.07 479.26,459.36 C480.36,459.64 482.30,459.19 483.58,458.35 C484.86,457.51 486.35,457.10 486.89,457.43 C487.42,457.76 488.14,457.58 488.49,457.02 C489.42,455.50 491.00,455.79 491.00,457.47 C491.00,458.28 492.22,459.58 493.72,460.36 C496.13,461.62 496.58,461.60 497.69,460.14 C498.37,459.24 498.95,457.97 498.97,457.32 M 461.00,458.06 C461.00,456.36 459.51,456.15 457.55,457.59 C455.71,458.93 455.75,459.00 458.31,459.00 C459.79,459.00 461.00,458.58 461.00,458.06 M 516.46,435.75 C514.24,428.35 511.18,424.09 502.72,416.56 C497.80,412.19 493.28,407.47 492.65,406.06 C490.17,400.42 486.80,399.64 484.91,404.25 C484.18,406.04 482.56,408.31 481.32,409.30 C479.55,410.71 479.18,411.77 479.62,414.30 C480.37,418.72 482.09,422.00 483.64,422.00 C484.36,422.00 486.84,423.06 489.15,424.36 C493.29,426.69 494.07,428.18 494.04,433.75 C494.03,435.37 494.61,436.00 496.12,436.00 C497.87,436.00 498.11,435.58 497.58,433.45 C496.63,429.68 497.85,428.52 500.36,430.81 C503.37,433.56 507.00,434.56 507.00,432.64 C507.00,431.82 507.78,431.00 508.74,430.81 C510.77,430.42 515.01,434.16 513.22,434.76 C512.35,435.05 512.37,435.50 513.28,436.54 C515.28,438.81 517.23,438.33 516.46,435.75 M 524.24,433.75 C523.61,429.00 520.65,421.69 519.73,422.60 C519.40,422.93 519.61,424.39 520.19,425.85 C520.77,427.31 521.61,429.40 522.05,430.50 C522.49,431.60 523.11,433.74 523.44,435.25 C524.36,439.48 524.88,438.51 524.24,433.75 M 400.32,431.65 C400.69,432.03 401.00,431.72 401.00,430.98 C401.00,430.10 401.52,430.30 402.47,431.56 C403.89,433.43 403.94,433.42 404.03,431.00 C404.10,428.86 404.28,428.73 405.22,430.12 C406.23,431.60 406.79,431.57 411.83,429.80 C414.85,428.74 418.39,428.13 419.69,428.46 C421.23,428.85 422.23,428.56 422.59,427.63 C422.89,426.85 425.16,425.90 427.64,425.53 C430.12,425.16 433.01,423.99 434.07,422.93 C437.62,419.38 436.08,412.88 430.88,409.47 C429.21,408.36 427.64,406.28 427.32,404.72 C426.84,402.44 426.36,402.07 424.62,402.61 C422.12,403.40 417.13,407.15 417.06,408.30 C417.02,408.75 415.65,410.55 414.00,412.30 C412.36,414.06 411.01,415.76 411.00,416.07 C411.00,416.38 408.08,418.98 404.51,421.84 C400.91,424.73 397.12,428.80 396.01,430.98 C393.30,436.29 393.48,436.87 396.82,433.67 C398.37,432.19 399.94,431.28 400.32,431.65 M 384.64,429.50 C384.32,428.68 384.61,427.99 385.28,427.97 C386.31,427.95 393.27,422.07 400.25,415.34 C404.28,411.45 400.86,410.80 395.19,414.38 C391.38,416.78 386.00,422.97 386.00,424.93 C386.00,425.52 385.60,426.00 385.11,426.00 C383.94,426.00 382.83,428.92 383.56,430.09 C384.47,431.56 385.26,431.13 384.64,429.50 M 548.57,410.77 C548.96,409.54 550.17,407.34 551.25,405.88 C552.73,403.87 552.97,402.77 552.21,401.41 C551.29,399.76 550.88,399.92 547.60,403.20 C542.93,407.87 542.74,412.41 547.18,412.92 C547.56,412.96 548.18,412.00 548.57,410.77 M 324.00,410.98 C325.33,410.11 325.33,409.89 324.00,409.02 C323.18,408.47 321.44,408.02 320.15,408.02 C318.86,408.01 316.52,407.08 314.95,405.97 C313.24,404.74 310.78,404.01 308.80,404.13 C306.98,404.23 304.04,403.99 302.25,403.58 C298.18,402.65 297.83,404.52 301.75,406.27 C303.26,406.95 305.18,408.28 306.00,409.23 C307.09,410.48 309.41,411.04 314.50,411.28 C318.35,411.46 321.73,411.69 322.00,411.79 C322.27,411.89 323.18,411.53 324.00,410.98 M 535.98,398.86 C535.99,397.95 535.33,396.95 534.50,396.64 C532.79,395.98 532.51,391.78 534.00,388.99 C535.26,386.64 533.54,385.31 531.46,387.04 C530.30,388.00 530.00,387.96 530.00,386.84 C530.00,386.07 530.92,384.66 532.04,383.70 C533.17,382.73 533.81,381.51 533.48,380.97 C533.15,380.44 533.36,380.00 533.94,380.00 C534.52,380.00 535.00,380.70 535.00,381.56 C535.00,382.42 535.42,382.86 535.93,382.54 C536.89,381.95 538.44,383.73 538.51,385.50 C538.53,386.05 539.78,386.42 541.27,386.31 C542.77,386.21 544.00,386.50 544.00,386.97 C544.00,388.75 548.05,386.66 548.53,384.63 C552.03,369.81 552.48,363.87 550.67,356.23 C548.52,347.09 546.28,335.55 545.49,329.50 C544.04,318.48 542.20,318.35 542.09,329.26 C541.96,342.38 541.01,345.00 536.37,345.00 C535.06,345.00 532.35,345.88 530.34,346.96 C528.32,348.04 526.33,348.70 525.90,348.44 C525.47,348.17 524.40,349.46 523.53,351.30 C522.49,353.49 520.70,355.14 518.39,356.04 C513.10,358.12 511.13,362.60 515.25,363.18 C516.49,363.36 517.50,364.18 517.50,365.00 C517.50,365.82 518.52,366.64 519.76,366.82 C521.01,367.00 521.78,367.54 521.48,368.03 C521.18,368.51 522.09,369.67 523.50,370.59 C525.93,372.18 525.97,372.37 524.38,374.14 C523.45,375.16 521.95,376.00 521.05,376.00 C520.14,376.00 518.89,376.51 518.26,377.14 C517.40,378.00 516.19,377.85 513.44,376.54 C510.41,375.10 509.36,375.01 507.47,376.01 C506.22,376.69 504.70,376.93 504.10,376.56 C503.49,376.19 503.00,376.35 503.00,376.92 C503.00,377.49 504.16,378.25 505.58,378.61 C507.48,379.09 508.04,379.75 507.68,381.13 C507.28,382.64 507.75,383.00 510.09,383.00 C511.69,383.00 513.00,383.45 513.00,384.00 C513.00,384.55 512.07,385.00 510.94,385.00 C509.81,385.00 509.16,385.45 509.50,386.00 C509.84,386.55 510.90,387.00 511.86,387.00 C512.83,387.00 515.10,388.10 516.92,389.44 C518.75,390.79 522.68,392.66 525.67,393.60 C531.26,395.36 533.99,397.93 534.02,401.47 C534.03,403.15 534.20,403.24 535.00,402.00 C535.53,401.18 535.98,399.76 535.98,398.86 M 487.05,393.73 C486.65,391.93 485.76,389.42 485.09,388.16 C484.41,386.90 483.93,383.54 484.02,380.69 C484.10,377.83 484.09,375.05 483.98,374.50 C483.76,373.28 484.10,366.59 484.41,366.27 C484.92,365.73 495.71,370.16 498.00,371.84 C499.38,372.86 502.18,374.00 504.23,374.39 C507.36,374.97 507.87,374.83 507.38,373.54 C507.05,372.69 506.16,372.00 505.39,372.00 C504.62,372.00 503.01,370.88 501.81,369.50 C500.62,368.12 499.16,366.99 498.57,366.98 C497.98,366.97 496.38,366.08 495.00,365.00 C493.62,363.92 491.72,363.03 490.77,363.02 C489.82,363.01 486.53,361.64 483.46,359.98 C480.39,358.32 477.49,357.20 477.02,357.49 C475.61,358.36 472.59,353.13 468.61,342.97 C463.15,329.00 461.02,325.57 457.58,325.17 C453.66,324.72 450.64,328.18 448.48,335.60 C445.82,344.74 443.72,348.79 441.00,350.08 C439.51,350.78 439.00,351.44 439.75,351.71 C441.99,352.52 441.07,353.50 437.95,353.61 C436.24,353.67 434.04,354.66 432.92,355.86 C431.82,357.04 430.02,358.00 428.92,358.00 C427.81,358.00 425.69,359.18 424.21,360.63 C422.29,362.49 422.03,363.08 423.32,362.63 C424.32,362.29 427.18,362.94 429.69,364.09 C434.54,366.29 435.57,365.97 436.28,362.00 C436.72,359.55 436.73,359.56 436.86,362.25 C437.04,365.74 438.34,365.78 439.56,362.33 C440.38,359.99 440.52,360.31 440.65,364.90 C440.74,367.78 440.57,369.90 440.27,369.60 C439.97,369.31 438.59,369.97 437.18,371.07 C435.40,372.47 434.53,374.26 434.27,377.04 C434.05,379.37 434.33,381.00 434.95,381.00 C436.46,381.00 436.24,383.70 434.53,386.31 C432.64,389.19 431.61,395.64 432.90,396.44 C433.45,396.78 436.28,395.89 439.20,394.46 C442.28,392.95 447.63,391.48 452.00,390.94 C456.12,390.42 461.52,389.65 464.00,389.22 C469.97,388.18 477.33,390.31 482.47,394.56 C484.65,396.37 486.74,397.66 487.12,397.43 C487.49,397.20 487.46,395.54 487.05,393.73 M 376.00,393.95 C376.00,392.30 373.78,391.79 372.44,393.13 C371.28,394.29 371.45,394.52 373.54,394.64 C374.89,394.72 376.00,394.41 376.00,393.95 M 547.00,391.30 C547.00,389.44 546.68,388.92 545.97,389.63 C545.40,390.20 545.22,391.42 545.57,392.33 C546.50,394.75 547.00,394.38 547.00,391.30 M 378.02,391.75 C378.02,391.06 378.46,389.83 378.98,389.00 C379.79,387.71 380.11,387.77 381.30,389.39 C382.62,391.21 382.75,391.19 384.91,388.88 C387.10,386.55 387.17,386.54 388.57,388.44 C389.36,389.51 390.00,389.88 390.00,389.28 C390.00,388.67 391.35,386.90 393.00,385.34 C394.65,383.78 396.00,382.23 396.00,381.88 C396.00,381.54 394.12,380.95 391.81,380.59 C388.58,380.07 387.43,380.27 386.76,381.46 C386.23,382.40 384.47,383.01 382.20,383.03 C380.17,383.05 377.79,383.61 376.92,384.28 C374.76,385.96 373.88,389.94 375.31,391.57 C376.82,393.29 378.00,393.36 378.02,391.75 M 536.81,390.47 C536.50,390.17 535.94,390.72 535.56,391.71 C535.02,393.13 535.14,393.25 536.12,392.27 C536.81,391.59 537.11,390.78 536.81,390.47 M 317.73,387.81 C319.35,385.95 318.69,384.00 316.44,384.00 C315.40,384.00 315.02,385.18 315.08,388.25 C315.12,390.59 315.41,391.82 315.71,391.00 C316.01,390.18 316.92,388.74 317.73,387.81 M 376.38,380.67 C377.41,380.28 378.85,380.46 379.58,381.07 C380.31,381.68 381.38,381.88 381.96,381.53 C383.54,380.55 383.21,378.00 381.50,378.00 C379.63,378.00 379.64,377.06 381.53,374.56 C382.34,373.49 383.00,371.59 383.00,370.34 C383.00,368.73 383.44,368.23 384.50,368.64 C385.59,369.05 386.00,368.53 386.00,366.73 C386.00,363.97 383.67,361.47 382.03,362.48 C381.45,362.84 379.60,361.75 377.91,360.07 C376.23,358.38 373.76,356.73 372.42,356.39 C371.09,356.06 370.00,355.38 370.00,354.89 C370.00,354.40 369.38,354.00 368.62,354.00 C367.86,354.00 366.73,353.38 366.10,352.62 C365.48,351.87 363.25,350.98 361.15,350.64 C359.05,350.30 356.52,349.12 355.51,348.02 C354.51,346.91 353.06,346.00 352.29,346.00 C351.51,346.00 351.14,345.58 351.46,345.07 C351.77,344.56 350.87,342.42 349.44,340.32 C347.46,337.39 346.12,336.45 343.68,336.28 C339.86,336.01 336.00,337.78 336.00,339.80 C336.00,340.61 335.18,341.99 334.17,342.88 C330.44,346.17 328.45,362.47 331.47,364.98 C332.28,365.65 332.84,366.94 332.72,367.85 C332.60,368.76 332.90,369.57 333.39,369.66 C333.88,369.76 334.66,370.43 335.12,371.16 C335.76,372.16 335.97,372.18 335.98,371.25 C336.01,368.91 339.05,369.99 340.19,372.75 C340.81,374.26 341.23,375.89 341.12,376.38 C341.01,376.86 341.85,377.01 343.00,376.71 C344.65,376.28 344.97,376.53 344.52,377.94 C344.01,379.55 344.82,379.72 353.20,379.78 C358.85,379.82 362.59,380.27 362.81,380.93 C363.01,381.52 365.15,382.00 367.58,382.00 C370.43,382.00 372.01,382.44 372.03,383.25 C372.05,384.09 372.46,383.99 373.28,382.94 C373.95,382.08 375.34,381.06 376.38,380.67 M 559.97,339.71 L 559.93,337.50 L 557.97,339.86 C555.43,342.91 555.44,344.37 558.00,343.00 C559.10,342.41 559.99,340.93 559.97,339.71 M 353.00,315.39 C353.00,314.36 353.55,314.00 354.54,314.38 C355.41,314.71 356.32,314.33 356.64,313.48 C356.96,312.67 357.70,312.00 358.30,312.00 C358.90,312.00 360.54,310.95 361.95,309.66 C363.35,308.37 367.20,306.54 370.50,305.59 C378.78,303.21 384.59,301.14 390.72,298.39 C393.60,297.11 397.20,295.75 398.72,295.37 C400.25,295.00 402.53,293.89 403.80,292.92 C405.06,291.94 407.54,290.85 409.30,290.49 C411.06,290.14 413.85,289.25 415.50,288.52 C417.15,287.79 420.72,286.90 423.43,286.54 C426.14,286.19 428.79,285.63 429.32,285.30 C431.60,283.89 438.20,283.96 444.12,285.44 C452.60,287.56 471.09,289.00 472.81,287.67 C474.56,286.32 485.75,285.79 486.51,287.02 C486.85,287.56 488.17,288.00 489.45,288.00 C490.74,288.00 492.04,288.65 492.34,289.44 C492.65,290.24 494.61,291.17 496.70,291.52 C498.79,291.86 501.40,292.52 502.50,292.99 C505.80,294.38 513.32,295.92 514.19,295.38 C514.63,295.11 516.00,295.59 517.22,296.44 C518.44,297.30 520.18,298.00 521.07,298.00 C521.96,298.00 523.50,298.90 524.50,300.00 C525.50,301.10 526.85,302.00 527.52,302.00 C528.19,302.00 529.84,302.87 531.19,303.94 C532.55,305.00 534.87,306.18 536.34,306.55 C537.82,306.92 539.46,307.96 539.98,308.86 C540.79,310.24 540.96,310.26 541.08,309.00 C541.16,308.18 541.38,306.17 541.57,304.55 C541.76,302.93 541.50,301.11 541.01,300.51 C540.51,299.91 539.86,298.03 539.56,296.34 C539.26,294.65 538.36,292.00 537.56,290.45 C535.84,287.14 536.70,284.86 538.65,287.54 C539.39,288.55 540.03,288.96 540.07,288.44 C540.91,277.32 540.84,265.51 539.92,264.40 C539.31,263.66 538.74,261.25 538.65,259.03 C538.57,256.82 538.21,255.01 537.86,255.01 C537.50,255.00 536.96,254.35 536.66,253.55 C536.29,252.58 536.58,252.29 537.55,252.66 C539.63,253.46 539.38,252.66 535.94,247.56 C534.25,245.06 533.12,242.61 533.43,242.11 C533.74,241.62 533.39,240.98 532.66,240.70 C531.93,240.42 528.24,235.54 524.45,229.85 C515.81,216.85 510.88,211.48 504.77,208.38 C500.35,206.14 498.82,205.94 486.23,205.97 C478.68,205.98 468.90,206.43 464.50,206.97 C460.10,207.51 450.88,208.41 444.00,208.97 C437.12,209.52 429.80,210.46 427.72,211.04 C425.65,211.62 421.82,212.07 419.22,212.05 C415.04,212.00 408.67,213.02 389.00,216.91 C372.41,220.18 356.00,227.49 356.00,231.61 C356.00,232.30 355.10,233.15 354.00,233.50 C352.90,233.85 352.00,234.51 352.00,234.97 C352.00,235.43 349.95,237.01 347.44,238.48 C344.94,239.95 342.41,242.20 341.82,243.49 C341.24,244.78 339.85,246.07 338.75,246.36 C337.21,246.76 336.94,247.31 337.60,248.69 C338.07,249.69 338.36,252.85 338.25,255.73 C338.09,260.00 338.49,261.43 340.41,263.50 C341.71,264.90 342.71,266.82 342.64,267.77 C342.56,268.72 343.01,269.41 343.63,269.29 C344.26,269.17 345.04,270.47 345.38,272.16 C345.92,274.87 346.20,275.08 347.61,273.91 C348.99,272.76 349.47,272.86 350.86,274.53 C351.93,275.82 353.45,276.39 355.25,276.18 C356.87,276.00 358.00,276.35 358.00,277.04 C358.00,277.71 358.69,277.95 359.63,277.59 C361.63,276.82 364.06,278.67 363.38,280.44 C363.11,281.16 363.50,282.36 364.25,283.12 C365.94,284.83 367.20,288.00 366.18,288.00 C365.77,288.00 364.58,289.46 363.54,291.25 C362.51,293.04 361.06,294.86 360.33,295.30 C359.60,295.74 359.00,297.32 359.00,298.81 C359.00,300.63 358.28,301.85 356.82,302.51 C355.45,303.13 354.49,304.62 354.25,306.50 C354.04,308.15 353.23,309.85 352.44,310.29 C350.53,311.36 348.76,314.81 349.51,316.02 C350.49,317.60 353.00,317.15 353.00,315.39 M 543.00,315.06 C543.00,314.54 542.55,313.84 542.00,313.50 C541.45,313.16 541.00,313.58 541.00,314.44 C541.00,315.30 541.45,316.00 542.00,316.00 C542.55,316.00 543.00,315.58 543.00,315.06 M 548.68,246.02 C549.01,243.86 547.47,242.42 546.50,243.99 C545.75,245.22 546.92,249.41 547.78,248.55 C548.11,248.22 548.52,247.08 548.68,246.02 M 532.09,212.17 C531.55,211.16 530.41,209.75 529.55,209.05 C528.26,207.97 528.00,208.02 528.00,209.31 C528.00,211.03 530.60,214.00 532.11,214.00 C532.72,214.00 532.71,213.33 532.09,212.17 M 334.64,168.50 C334.36,167.78 335.00,166.97 336.07,166.69 C337.13,166.41 338.00,165.70 338.00,165.12 C338.00,164.39 337.12,164.43 335.25,165.25 C331.75,166.79 330.84,168.10 332.17,169.71 C333.45,171.24 335.34,170.32 334.64,168.50 M 476.36,163.05 C475.84,160.45 475.52,160.11 474.81,161.37 C474.25,162.37 474.34,163.77 475.04,165.07 C476.56,167.92 477.15,167.01 476.36,163.05 M 471.50,158.99 C471.16,158.45 470.46,158.00 469.94,158.00 C468.85,158.00 468.66,161.33 469.69,162.36 C470.63,163.30 472.27,160.24 471.50,158.99 M 455.83,155.50 C455.80,152.57 455.78,152.56 455.00,155.00 C454.56,156.38 454.19,158.62 454.17,160.00 C454.14,162.27 454.22,162.32 455.00,160.50 C455.47,159.40 455.85,157.15 455.83,155.50 M 500.00,160.65 C500.00,160.46 499.09,159.26 497.99,157.98 C496.85,156.67 496.21,154.90 496.53,153.92 C497.16,151.93 495.49,150.40 494.48,152.04 C494.03,152.76 493.05,152.61 491.44,151.55 C487.97,149.28 486.69,149.55 488.13,152.24 C490.19,156.10 494.94,160.24 496.57,159.61 C497.45,159.28 497.84,159.45 497.49,160.01 C497.16,160.56 497.58,161.00 498.44,161.00 C499.30,161.00 500.00,160.84 500.00,160.65 M 357.06,157.75 C359.04,155.37 359.58,153.00 358.14,153.00 C357.66,153.00 356.07,154.20 354.60,155.67 C352.59,157.68 352.25,158.54 353.22,159.15 C354.98,160.27 354.94,160.28 357.06,157.75 M 470.60,156.43 C471.92,156.77 473.00,156.77 473.00,156.45 C473.00,155.32 470.13,153.00 468.74,153.00 C467.97,153.00 467.05,152.71 466.70,152.36 C465.55,151.22 459.07,151.08 458.38,152.19 C457.68,153.32 461.95,157.15 463.11,156.43 C463.47,156.21 464.35,156.72 465.06,157.57 C466.22,158.97 466.44,158.96 467.27,157.48 C467.91,156.35 468.94,156.02 470.60,156.43 M 399.35,154.53 C399.66,153.72 399.48,152.80 398.96,152.47 C398.43,152.15 398.00,152.81 398.00,153.94 C398.00,156.36 398.56,156.60 399.35,154.53 M 475.50,152.00 C475.16,151.45 474.43,151.00 473.88,151.00 C473.33,151.00 473.16,151.45 473.50,152.00 C473.84,152.55 474.57,153.00 475.12,153.00 C475.67,153.00 475.84,152.55 475.50,152.00 M 481.00,151.17 C481.00,150.71 480.34,150.33 479.54,150.33 C478.74,150.33 478.32,150.71 478.60,151.17 C478.89,151.62 479.54,152.00 480.06,152.00 C480.58,152.00 481.00,151.62 481.00,151.17 M 351.73,150.40 C351.40,150.06 350.53,150.03 349.81,150.32 C349.01,150.64 349.25,150.87 350.42,150.92 C351.47,150.96 352.06,150.73 351.73,150.40 M 469.00,146.05 C469.00,144.40 459.82,138.00 457.45,138.00 C455.68,138.00 455.30,138.44 455.71,140.00 C456.00,141.12 457.07,142.00 458.15,142.00 C459.20,142.00 460.32,142.68 460.64,143.50 C460.96,144.35 462.45,145.00 464.05,145.00 C465.61,145.00 467.16,145.45 467.50,146.00 C468.28,147.26 469.00,147.29 469.00,146.05 M 487.92,144.74 C487.69,144.60 486.38,143.58 485.00,142.49 L 482.50,140.50 L 484.40,142.75 C485.45,143.99 486.77,145.00 487.32,145.00 C487.88,145.00 488.15,144.88 487.92,144.74 M 395.72,142.57 C394.93,141.79 392.54,140.89 390.39,140.57 L 386.50,140.00 L 390.50,141.97 C395.41,144.40 397.82,144.68 395.72,142.57 M 324.08,513.42 C324.13,512.25 324.36,512.01 324.68,512.81 C324.97,513.53 324.94,514.40 324.60,514.73 C324.27,515.06 324.04,514.47 324.08,513.42 M 304.63,179.25 C306.27,174.18 308.58,170.92 310.25,171.36 C311.21,171.61 312.25,171.40 312.56,170.91 C313.32,169.67 317.00,169.75 317.00,171.00 C317.00,171.55 316.17,172.00 315.15,172.00 C313.24,172.00 306.00,178.37 306.00,180.05 C306.00,180.57 305.56,181.00 305.03,181.00 C304.50,181.00 304.32,180.21 304.63,179.25 M 528.21,381.81 C528.12,378.62 528.12,378.62 529.40,381.06 C530.68,383.51 530.57,385.00 529.09,385.00 C528.66,385.00 528.26,383.56 528.21,381.81 M 520.50,379.00 C520.84,378.45 521.32,378.00 521.56,378.00 C521.80,378.00 522.00,378.45 522.00,379.00 C522.00,379.55 521.52,380.00 520.94,380.00 C520.36,380.00 520.16,379.55 520.50,379.00 M 365.56,276.42 C364.49,275.64 364.04,275.01 364.56,275.02 C365.94,275.04 368.52,276.81 367.97,277.36 C367.71,277.62 366.62,277.20 365.56,276.42 M 451.38,274.55 C451.07,273.75 451.09,272.66 451.42,272.13 C451.74,271.60 451.45,270.96 450.76,270.71 C449.77,270.35 449.76,269.97 450.71,268.97 C451.69,267.92 452.21,267.93 453.50,269.00 C454.38,269.73 454.87,270.91 454.59,271.63 C454.31,272.35 454.52,273.20 455.04,273.53 C456.71,274.56 456.08,276.00 453.97,276.00 C452.85,276.00 451.69,275.35 451.38,274.55 M 407.00,252.50 C407.68,251.68 408.69,251.00 409.24,251.00 C409.80,251.00 409.69,251.66 409.00,252.50 C408.32,253.32 407.31,254.00 406.76,254.00 C406.20,254.00 406.31,253.34 407.00,252.50 M 410.00,248.11 C410.00,247.21 412.35,246.00 414.08,246.00 C414.59,246.00 415.00,246.68 415.00,247.50 C415.00,248.43 414.06,249.00 412.50,249.00 C411.12,249.00 410.00,248.60 410.00,248.11 Z" fill="rgba(0,0,0,1)"/>
</g>
</svg>